HIERARCHY
ROOT Hips
{
 OFFSET 0.000000 0.000000 0.000000
 CHANNELS 6 Xposition Yposition Zposition Yrotation Xrotation Zrotation
 JOINT Chest
 {
  OFFSET 0.000000 9.585900 0.002600
  CHANNELS 3 Yrotation Xrotation Zrotation
  JOINT Chest2
  {
   OFFSET 0.000000 9.601200 -0.005300
   CHANNELS 3 Yrotation Xrotation Zrotation
   JOINT Chest3
   {
    OFFSET 0.000000 9.561800 0.000000
    CHANNELS 3 Yrotation Xrotation Zrotation
    JOINT Chest4
    {
     OFFSET 0.000000 9.552100 0.000000
     CHANNELS 3 Yrotation Xrotation Zrotation
     JOINT Neck
     {
      OFFSET 0.000000 14.453000 0.000000
      CHANNELS 3 Yrotation Xrotation Zrotation
      JOINT Head
      {
       OFFSET 0.000000 8.936500 -0.011300
       CHANNELS 3 Yrotation Xrotation Zrotation
       End Site
       {
        OFFSET 0.000000 17.073600 -0.006000
       }
      }
     }
     JOINT RightCollar
     {
      OFFSET -2.921100 9.558500 0.000000
      CHANNELS 3 Yrotation Xrotation Zrotation
      JOINT RightShoulder
      {
       OFFSET -13.519700 0.000000 0.000000
       CHANNELS 3 Yrotation Xrotation Zrotation
       JOINT RightElbow
       {
        OFFSET 0.000000 -29.696600 0.000000
        CHANNELS 3 Yrotation Xrotation Zrotation
        JOINT RightWrist
        {
         OFFSET 0.000000 -24.004700 0.000000
         CHANNELS 3 Yrotation Xrotation Zrotation
         End Site
         {
          OFFSET 0.000000 -17.728500 0.000000
         }
        }
       }
      }
     }
     JOINT LeftCollar
     {
      OFFSET 2.921100 9.558500 0.000000
      CHANNELS 3 Yrotation Xrotation Zrotation
      JOINT LeftShoulder
      {
       OFFSET 13.519700 0.000000 0.000000
       CHANNELS 3 Yrotation Xrotation Zrotation
       JOINT LeftElbow
       {
        OFFSET 0.000000 -29.696600 0.000000
        CHANNELS 3 Yrotation Xrotation Zrotation
        JOINT LeftWrist
        {
         OFFSET 0.000000 -24.004700 0.000000
         CHANNELS 3 Yrotation Xrotation Zrotation
         End Site
         {
          OFFSET 0.000000 -17.728500 0.000000
         }
        }
       }
      }
     }
    }
   }
  }
 }
 JOINT RightHip
 {
  OFFSET -7.771700 -0.012900 -0.001300
  CHANNELS 3 Yrotation Xrotation Zrotation
  JOINT RightKnee
  {
   OFFSET 0.000000 -40.869800 0.001200
   CHANNELS 3 Yrotation Xrotation Zrotation
   JOINT RightAnkle
   {
    OFFSET 0.000000 -39.717900 0.002100
    CHANNELS 3 Yrotation Xrotation Zrotation
    JOINT RightToe
    {
     OFFSET 0.000000 -4.965400 11.033500
     CHANNELS 3 Yrotation Xrotation Zrotation
     End Site
     {
      OFFSET 0.000000 -1.423100 5.872300
     }
    }
   }
  }
 }
 JOINT LeftHip
 {
  OFFSET 7.771700 -0.012900 -0.001300
  CHANNELS 3 Yrotation Xrotation Zrotation
  JOINT LeftKnee
  {
   OFFSET 0.000000 -40.869800 0.001200
   CHANNELS 3 Yrotation Xrotation Zrotation
   JOINT LeftAnkle
   {
    OFFSET 0.000000 -39.717900 0.002100
    CHANNELS 3 Yrotation Xrotation Zrotation
    JOINT LeftToe
    {
     OFFSET 0.000000 -4.965400 11.033500
     CHANNELS 3 Yrotation Xrotation Zrotation
     End Site
     {
      OFFSET 0.000000 -1.423100 5.872300
     }
    }
   }
  }
 }
}
MOTION
Frames: 15
Frame Time: 0.008333
0.000000 85.388000 0.000000 0.000000 -5.767877 0.000000 0.000000 11.653817 0.000000 0.000000 -5.885947 0.000000 0.000000 -0.000000 0.000000 0.000000 -0.000000 0.000000 0.000000 12.528835 0.000000 0.000000 0.711642 0.000000 0.000000 -0.000000 0.000000 0.000000 0.000000 -90.000000 0.000000 -2.309062 0.000000 0.000000 2.309062 0.000000 0.000000 -0.000000 0.000000 0.000000 -0.000000 90.000000 0.000000 -2.309062 0.000000 0.000000 2.309062 0.000000 0.000000 8.520406 0.000000 0.000000 1.905762 0.000000 -0.000000 -4.658285 0.000000 0.000000 -0.000000 0.000000 0.000000 8.520406 0.000000 0.000000 1.905762 0.000000 -0.000000 -4.658285 0.000000 0.000000 -0.000000 0.000000
16.453347 50.013358 54.869814 174.198146 -33.215528 -7.502641 6.191119 19.894768 7.281436 0.716028 2.675319 0.696666 1.149539 4.380821 1.159278 5.131959 17.110712 5.223186 -2.448970 16.373724 0.777767 -4.817949 -5.318005 2.303664 -1.088820 -6.386207 -10.156882 17.312277 -16.966220 -2.901190 153.021552 -69.132898 -158.918847 -0.893057 -10.335294 12.533299 -13.388819 -6.082961 1.881868 -1.104398 -19.346210 3.710865 138.924876 -65.317794 -149.992829 30.397871 7.969708 -14.550623 -1.518159 -46.998375 10.745980 -121.728353 83.251040 -110.333912 -1.199313 -14.369752 -2.903296 -0.150011 0.949605 -0.088217 -10.301186 -50.898351 18.259719 -149.051257 80.300274 -157.859172 -0.095468 -17.029891 8.576766 -0.413602 -0.725487 -0.202743
16.451337 50.012196 54.877296 174.185002 -33.251933 -7.529757 6.201744 19.943300 7.320894 0.699492 2.729721 0.713077 1.170358 4.377949 1.155423 5.135136 17.159041 5.248383 -2.434210 16.416835 0.789600 -4.793181 -5.238067 2.318549 -1.089611 -6.343745 -10.109564 17.377818 -17.059896 -2.903917 151.542221 -69.463194 -157.671684 -0.922292 -10.248540 11.973091 -13.415568 -6.074243 1.872292 -1.266957 -19.386159 3.776770 137.817502 -65.658083 -148.578858 30.080453 8.295954 -14.015862 -1.551944 -46.958795 10.781897 -121.646473 83.267698 -110.224712 -1.230392 -14.352683 -2.926278 -0.102670 0.945061 -0.080535 -10.288130 -50.876335 18.248989 -149.166014 80.302505 -157.932152 -0.066253 -17.027742 8.566266 -0.422090 -0.726636 -0.214930
16.443929 50.008162 54.888269 174.158320 -33.270912 -7.524239 6.212950 19.977795 7.332998 0.709903 2.729741 0.712940 1.155455 4.472665 1.189939 5.138368 17.161253 5.246780 -2.419982 16.457492 0.802530 -4.769852 -5.162604 2.335705 -1.094409 -6.301392 -10.067030 17.443603 -17.151346 -2.915182 149.977224 -69.829477 -156.346144 -1.021457 -10.281778 11.482196 -13.439564 -6.064188 1.862405 -1.439873 -19.407695 3.839023 136.651027 -65.951444 -147.090267 29.764082 8.594951 -13.717128 -1.606242 -46.932629 10.773614 -121.758970 83.326141 -110.339324 -1.168713 -14.330793 -2.942959 -0.141351 0.940016 -0.118911 -10.228902 -50.879816 18.192807 -149.236765 80.305156 -157.959668 -0.030460 -17.024741 8.557134 -0.432156 -0.727607 -0.218471
16.437814 50.007198 54.895467 174.151215 -33.323581 -7.536917 6.214378 20.050345 7.354701 0.723600 2.726855 0.714792 1.144078 4.536560 1.210106 5.138134 17.192428 5.258703 -2.404478 16.495197 0.817824 -4.745055 -5.092543 2.356945 -1.103407 -6.265218 -10.027660 17.520457 -17.242219 -2.934188 148.415939 -70.256256 -155.026262 -1.192123 -10.472700 11.099415 -13.458337 -6.049376 1.856233 -1.595083 -19.422137 3.886247 135.424564 -66.188770 -145.564004 29.453198 8.898359 -13.638052 -1.648862 -46.875278 10.790598 -121.781172 83.354913 -110.365768 -1.142711 -14.314153 -2.961217 -0.158457 0.934511 -0.123715 -10.173919 -50.845926 18.133129 -149.312074 80.306822 -157.984037 -0.003793 -17.024626 8.550808 -0.437238 -0.728623 -0.225021
16.433024 50.006267 54.903439 174.147742 -33.373987 -7.558880 6.218279 20.116422 7.382334 0.697603 2.792347 0.730863 1.166243 4.524571 1.206620 5.135867 17.237671 5.276646 -2.386925 16.528722 0.834194 -4.716911 -5.030254 2.379728 -1.115596 -6.238107 -9.992000 17.615175 -17.339289 -2.959652 146.954514 -70.763547 -153.799514 -1.420288 -10.840276 10.858529 -13.468696 -6.029972 1.851764 -1.705892 -19.438263 3.914316 134.148812 -66.377476 -144.039132 29.153475 9.224419 -13.743219 -1.682910 -46.822151 10.817827 -121.741772 83.372440 -110.321995 -1.134920 -14.301299 -2.970374 -0.149355 0.933767 -0.106266 -10.128561 -50.814316 18.088213 -149.402789 80.309973 -158.025745 0.022300 -17.019652 8.544448 -0.436021 -0.733976 -0.228320
16.433485 50.001855 54.918867 174.118602 -33.378239 -7.598819 6.257771 20.118116 7.440253 0.690870 2.809696 0.734172 1.151803 4.578600 1.219157 5.128605 17.282772 5.292587 -2.368011 16.554752 0.847789 -4.685620 -4.982139 2.397285 -1.126997 -6.216906 -9.959173 17.731456 -17.451585 -2.996302 145.639376 -71.352099 -152.713826 -1.683132 -11.363338 10.777882 -13.470637 -6.007658 1.845670 -1.763150 -19.458623 3.930278 132.866241 -66.525550 -142.562527 28.870757 9.573333 -13.976427 -1.737849 -46.815249 10.882904 -121.588449 83.402215 -110.120812 -1.182953 -14.277120 -3.033308 -0.077817 0.934095 -0.077941 -10.117237 -50.827110 18.112239 -149.488237 80.313618 -158.063478 0.055468 -17.027391 8.540121 -0.460170 -0.724234 -0.234651
16.430919 49.999121 54.930534 174.097129 -33.398913 -7.616225 6.263222 20.171688 7.466750 0.678434 2.846481 0.738880 1.158319 4.592045 1.223481 5.114806 17.329445 5.304755 -2.348504 16.570509 0.856302 -4.651931 -4.953305 2.405582 -1.133191 -6.195447 -9.922470 17.871742 -17.586201 -3.047749 144.427523 -71.994567 -151.737757 -1.952167 -11.964254 10.841635 -13.463289 -5.981368 1.841215 -1.773896 -19.476385 3.940884 131.640746 -66.629291 -141.187543 28.603223 9.934460 -14.266875 -1.786708 -46.790550 10.912858 -121.584678 83.441888 -110.093135 -1.198936 -14.259450 -3.065784 -0.048353 0.931122 -0.078615 -10.069364 -50.823712 18.090453 -149.620623 80.322759 -158.151378 0.065585 -17.032052 8.540565 -0.473026 -0.721037 -0.229236
16.428296 49.999202 54.937437 174.087685 -33.444415 -7.629211 6.216672 20.311192 7.466658 0.703955 2.834749 0.743263 1.164217 4.603583 1.227129 5.093647 17.378079 5.311483 -2.327432 16.577174 0.859226 -4.613681 -4.941579 2.403292 -1.129768 -6.166886 -9.874644 18.041610 -17.740021 -3.117886 143.196579 -72.641047 -150.764297 -2.195252 -12.528609 10.992544 -13.441471 -5.948623 1.839888 -1.756710 -19.477288 3.950152 130.556676 -66.693785 -139.984565 28.358499 10.275798 -14.537678 -1.832057 -46.739379 10.937346 -121.604957 83.471613 -110.116654 -1.174760 -14.243320 -3.080445 -0.063640 0.924410 -0.085989 -10.020223 -50.789397 18.060797 -149.809094 80.336758 -158.301539 0.030777 -17.028707 8.544703 -0.463116 -0.719301 -0.227129
16.424672 49.998066 54.945105 174.078075 -33.474330 -7.628165 6.187028 20.389009 7.456380 0.701232 2.851409 0.746147 1.175317 4.608440 1.230212 5.050258 17.447476 5.317885 -2.303767 16.576820 0.857177 -4.569045 -4.943309 2.391253 -1.117353 -6.124851 -9.815250 18.239881 -17.906262 -3.209955 141.810395 -73.247358 -149.655548 -2.382479 -12.963899 11.154192 -13.402602 -5.909242 1.841164 -1.732423 -19.449614 3.960903 129.697493 -66.741720 -139.020405 28.152414 10.559505 -14.735793 -1.866350 -46.706908 10.943275 -121.653682 83.500096 -110.170720 -1.150974 -14.230030 -3.094938 -0.079955 0.920715 -0.099189 -9.991490 -50.765949 18.042311 -149.884123 80.346235 -158.366792 0.008707 -17.023755 8.553000 -0.452439 -0.716835 -0.226514
16.424582 49.997424 54.951929 174.060509 -33.506094 -7.635194 6.164911 20.464376 7.456973 0.725562 2.839723 0.748971 1.141402 4.660506 1.235163 5.063273 17.433819 5.308339 -2.322948 16.628487 0.871881 -4.521965 -4.957300 2.372877 -1.154135 -6.009250 -9.727035 18.444336 -18.074056 -3.323456 140.154492 -73.777115 -148.275683 -2.500522 -13.235903 11.271504 -13.397675 -5.804931 1.854404 -1.710098 -19.391830 3.970983 129.105809 -66.795737 -138.330795 27.984571 10.754875 -14.840217 -1.912153 -46.669882 10.967216 -121.705283 83.540339 -110.209364 -1.162229 -14.213839 -3.141072 -0.076586 0.911706 -0.086541 -9.914948 -50.746633 18.001211 -149.963850 80.353266 -158.404710 0.007538 -17.033863 8.570008 -0.460621 -0.706312 -0.235924
16.427651 49.996099 54.959016 174.035714 -33.530692 -7.649989 6.151590 20.526143 7.469833 0.748362 2.832421 0.750467 1.092611 4.727199 1.241828 5.020357 17.492491 5.304881 -2.277285 16.585189 0.853438 -4.466184 -5.014483 2.341711 -1.115299 -5.969378 -9.663661 18.619514 -18.220392 -3.457789 138.165173 -74.189601 -146.543211 -2.557487 -13.366554 11.324330 -13.301224 -5.793259 1.858768 -1.685213 -19.308222 3.977042 128.800080 -66.870062 -137.936832 27.833732 10.843914 -14.862675 -1.970517 -46.640047 11.009845 -121.739425 83.580858 -110.218306 -1.191953 -14.189893 -3.210408 -0.028244 0.897804 -0.062133 -9.850065 -50.729036 17.983525 -149.968447 80.356767 -158.370775 0.025420 -17.059424 8.591229 -0.469475 -0.685407 -0.239027
16.426073 49.993888 54.963407 174.028984 -33.555792 -7.639088 6.134939 20.571224 7.455538 0.717889 2.866305 0.751176 1.117956 4.712560 1.241603 4.936242 17.598236 5.316714 -2.233746 16.538837 0.831433 -4.413396 -5.063675 2.311140 -1.082177 -5.917449 -9.596549 18.741187 -18.323830 -3.608955 135.880569 -74.454676 -144.488125 -2.575684 -13.419617 11.326987 -13.192973 -5.781408 1.861307 -1.654284 -19.204780 3.977284 128.812325 -66.974691 -137.866952 27.674569 10.832216 -14.843630 -2.008645 -46.613919 11.009796 -121.852674 83.606808 -110.342645 -1.169028 -14.177553 -3.233471 -0.039507 0.890759 -0.051547 -9.767514 -50.714618 17.920901 -149.914110 80.358608 -158.289606 0.036604 -17.068539 8.606169 -0.470338 -0.674634 -0.239366
16.423144 49.989211 54.968489 174.007835 -33.564369 -7.607720 6.123565 20.599066 7.426418 0.689694 2.897131 0.752433 1.100698 4.750736 1.251065 4.914415 17.621466 5.312184 -2.215566 16.513222 0.813870 -4.392762 -5.066936 2.283140 -1.080416 -5.831497 -9.520728 18.809102 -18.376137 -3.766686 133.474855 -74.574795 -142.281784 -2.562974 -13.463171 11.313604 -13.100064 -5.745826 1.860085 -1.624156 -19.088363 3.971905 129.180117 -67.116737 -138.149289 27.502463 10.740511 -14.822636 -2.076183 -46.606707 10.993036 -122.195217 83.661789 -110.702143 -1.129596 -14.144274 -3.281034 -0.069393 0.860619 -0.061583 -9.676475 -50.718068 17.854223 -149.820017 80.356464 -158.179520 0.049611 -17.075960 8.628080 -0.469417 -0.665216 -0.243146
16.422852 49.984158 54.972565 173.997839 -33.570171 -7.593878 6.062003 20.677542 7.401720 0.684349 2.919080 0.756230 1.115693 4.749872 1.251813 4.892942 17.639690 5.309766 -2.203826 16.482108 0.793782 -4.348641 -5.124772 2.241332 -1.083695 -5.738350 -9.444443 18.837346 -18.379038 -3.922849 131.168857 -74.573460 -140.150426 -2.512316 -13.538579 11.315257 -12.996258 -5.716220 1.846630 -1.609938 -18.959788 3.967245 129.907417 -67.291991 -138.780792 27.324224 10.590968 -14.830726 -2.114174 -46.604350 10.981617 -122.402116 83.688026 -110.900329 -1.121171 -14.127520 -3.314613 -0.066497 0.845518 -0.066518 -9.624215 -50.721403 17.816172 -149.742377 80.352744 -158.093794 0.071686 -17.082861 8.647444 -0.473042 -0.659210 -0.245206
